<?xml version="1.0" standalone="no"?>
<!DOCTYPE svg PUBLIC "-//W3C//DTD SVG 20010904//EN"
 "http://www.w3.org/TR/2001/REC-SVG-20010904/DTD/svg10.dtd">
<svg version="1.0" xmlns="http://www.w3.org/2000/svg"
 width="1024.000000pt" height="1024.000000pt" viewBox="0 0 1024.000000 1024.000000"
 preserveAspectRatio="xMidYMid meet">
<metadata>
Created by potrace 1.14, written by Peter Selinger 2001-2017
</metadata>
<g transform="translate(0.000000,1024.000000) scale(0.100000,-0.100000)"
fill="#000000" stroke="none">
<path d="M1631 7814 c-124 -33 -236 -129 -294 -251 l-32 -68 0 -2391 0 -2390
37 -75 c62 -126 163 -210 293 -244 53 -13 441 -15 3496 -15 3414 0 3437 0
3502 20 146 45 259 158 301 299 14 49 16 283 16 2408 0 2341 0 2354 -20 2414
-50 147 -165 254 -315 294 -53 13 -439 15 -3495 14 -2969 0 -3442 -2 -3489
-15z m6897 -400 l22 -15 0 -1828 0 -1828 -61 -7 c-106 -11 -281 -6 -354 9
-196 41 -441 209 -730 499 -134 135 -192 198 -580 631 -203 227 -435 462 -563
568 -324 270 -602 373 -862 319 -354 -73 -639 -301 -1290 -1032 -599 -673
-878 -908 -1164 -980 -154 -39 -281 -21 -451 64 -197 99 -407 271 -662 544
l-133 141 0 1450 0 1450 22 15 c20 14 360 16 3403 16 3043 0 3383 -2 3403 -16z"/>
<path d="M7220 6654 c-149 -32 -299 -134 -383 -262 -215 -324 -88 -760 266
-917 240 -106 522 -46 704 148 178 191 218 466 100 706 -48 99 -178 227 -279
275 -132 63 -269 80 -408 50z"/>
</g>
</svg>
